<mxfile host="65bd71144e">
    <diagram id="C7yF1HLOASjUvjk8QO4J" name="ページ1">
        <mxGraphModel dx="662" dy="1636" grid="1" gridSize="10" guides="1" tooltips="1" connect="1" arrows="1" fold="1" page="1" pageScale="1" pageWidth="827" pageHeight="1169" math="0" shadow="0">
            <root>
                <mxCell id="0"/>
                <mxCell id="1" parent="0"/>
                <mxCell id="32" value="&lt;span style=&quot;font-size: 22px;&quot;&gt;&lt;b&gt;categories&lt;/b&gt;&lt;/span&gt;&lt;br&gt;&lt;div style=&quot;&quot;&gt;&lt;span style=&quot;font-size: 17px;&quot;&gt;id : unsigned bigint&lt;b&gt;&amp;nbsp; &amp;nbsp; &lt;/b&gt;PK&lt;/span&gt;&lt;/div&gt;&lt;div style=&quot;&quot;&gt;&lt;span style=&quot;font-size: 17px;&quot;&gt;name : text[UNIQUE,NOT NULL]&lt;/span&gt;&lt;/div&gt;&lt;div style=&quot;&quot;&gt;&lt;font style=&quot;font-size: 17px;&quot;&gt;created_at : timestamp&lt;/font&gt;&lt;/div&gt;&lt;div style=&quot;&quot;&gt;&lt;font style=&quot;font-size: 17px;&quot;&gt;updated_at : timestamp&lt;/font&gt;&lt;/div&gt;" style="rounded=0;whiteSpace=wrap;html=1;strokeWidth=1;verticalAlign=top;align=left;" vertex="1" parent="1">
                    <mxGeometry x="10" y="-260" width="260" height="120" as="geometry"/>
                </mxCell>
                <mxCell id="33" value="" style="endArrow=none;html=1;startSize=0;verticalAlign=top;" edge="1" parent="1">
                    <mxGeometry width="50" height="50" relative="1" as="geometry">
                        <mxPoint x="10" y="-229.99999999999997" as="sourcePoint"/>
                        <mxPoint x="140" y="-230" as="targetPoint"/>
                        <Array as="points">
                            <mxPoint x="110" y="-230"/>
                            <mxPoint x="150" y="-230"/>
                            <mxPoint x="270" y="-230"/>
                        </Array>
                    </mxGeometry>
                </mxCell>
                <mxCell id="34" value="&lt;b&gt;&lt;font style=&quot;font-size: 22px;&quot;&gt;todos&lt;/font&gt;&lt;/b&gt;&lt;div&gt;&lt;font style=&quot;font-size: 16px;&quot;&gt;id :&amp;nbsp;&lt;span style=&quot;color: rgb(63, 63, 63); background-color: transparent;&quot;&gt;unsigned&amp;nbsp; bigint&amp;nbsp; &amp;nbsp;PK&lt;/span&gt;&lt;/font&gt;&lt;/div&gt;&lt;div&gt;&lt;font style=&quot;font-size: 16px;&quot;&gt;category_id : unsigned&amp;nbsp; bigint[NOT NULL]&amp;nbsp; &amp;nbsp;FK&lt;/font&gt;&lt;/div&gt;&lt;div&gt;&lt;font style=&quot;font-size: 16px;&quot;&gt;content : text[NOT NULL,max 20 chars]&lt;/font&gt;&lt;/div&gt;&lt;div&gt;&lt;font style=&quot;font-size: 16px;&quot;&gt;created_at : timestamp&lt;/font&gt;&lt;/div&gt;&lt;div&gt;&lt;font style=&quot;font-size: 16px;&quot;&gt;updated_at : timestamp&lt;/font&gt;&lt;/div&gt;" style="rounded=0;whiteSpace=wrap;html=1;align=left;" vertex="1" parent="1">
                    <mxGeometry x="340" y="-260" width="340" height="130" as="geometry"/>
                </mxCell>
                <mxCell id="37" value="" style="endArrow=none;html=1;" edge="1" parent="1">
                    <mxGeometry width="50" height="50" relative="1" as="geometry">
                        <mxPoint x="340" y="-230" as="sourcePoint"/>
                        <mxPoint x="680" y="-230" as="targetPoint"/>
                    </mxGeometry>
                </mxCell>
                <mxCell id="38" value="" style="fontSize=12;html=1;endArrow=ERoneToMany;startArrow=ERmandOne;exitX=1;exitY=0.5;exitDx=0;exitDy=0;" edge="1" parent="1" source="32">
                    <mxGeometry width="100" height="100" relative="1" as="geometry">
                        <mxPoint x="280" y="-200" as="sourcePoint"/>
                        <mxPoint x="340" y="-200" as="targetPoint"/>
                    </mxGeometry>
                </mxCell>
            </root>
        </mxGraphModel>
    </diagram>
</mxfile>